<svg width="56" height="56" viewBox="0 0 56 56" fill="none" xmlns="http://www.w3.org/2000/svg">
<path d="M10.2538 13.5789L8.29733 13.3292C7.01983 13.1659 5.25 14.4177 5.25 15.7069V41.1519C5.25 43.0909 6.3735 43.6789 8.72083 44.0347L28 46.886L47.2792 44.0347C49.6265 43.6789 50.75 43.0909 50.75 41.1519V15.7069C50.75 14.4177 48.9802 13.1647 47.7027 13.3292L46.3202 13.5054M13.062 40.0144C11.5208 39.592 10.2527 38.5864 10.2527 36.127V11.8464C10.2527 9.90972 11.5127 8.62055 14.5308 9.32871L28.2882 12.5522L42.0432 9.32871C45.052 8.57271 46.3225 9.90972 46.3225 11.8464V36.127C46.3225 38.5864 45.0543 39.592 43.5132 40.0144L28.2882 44.184L13.062 40.0144Z" stroke="white" stroke-width="3" stroke-linecap="round" stroke-linejoin="round"/>
</svg>
