<svg width="20" height="20" viewBox="0 0 20 20" fill="none" xmlns="http://www.w3.org/2000/svg">
<path d="M10.0334 1.66655C5.48337 1.66655 1.77504 5.37488 1.77504 9.92488C1.77504 11.3832 2.15837 12.7999 2.87504 14.0499L1.70837 18.3332L6.08337 17.1832C7.29171 17.8415 8.65004 18.1915 10.0334 18.1915C14.5834 18.1915 18.2917 14.4832 18.2917 9.93322C18.2917 7.72488 17.4334 5.64988 15.875 4.09155C15.1109 3.31997 14.2009 2.70819 13.198 2.29185C12.195 1.87551 11.1193 1.66295 10.0334 1.66655ZM10.0417 3.05822C11.875 3.05822 13.5917 3.77488 14.8917 5.07488C15.5295 5.71281 16.0352 6.47031 16.3799 7.30398C16.7245 8.13765 16.9012 9.03112 16.9 9.93322C16.9 13.7165 13.8167 16.7915 10.0334 16.7915C8.80004 16.7915 7.59171 16.4665 6.54171 15.8332L6.29171 15.6915L3.69171 16.3749L4.38337 13.8415L4.21671 13.5749C3.52883 12.4819 3.16477 11.2163 3.16671 9.92488C3.17504 6.14155 6.25004 3.05822 10.0417 3.05822ZM7.10837 6.10821C6.97504 6.10821 6.75004 6.15822 6.55837 6.36655C6.37504 6.57488 5.83337 7.08321 5.83337 8.09155C5.83337 9.10821 6.57504 10.0832 6.66671 10.2249C6.78337 10.3665 8.13337 12.4499 10.2084 13.3332C10.7 13.5582 11.0834 13.6832 11.3834 13.7749C11.875 13.9332 12.325 13.9082 12.6834 13.8582C13.0834 13.7999 13.9 13.3582 14.075 12.8749C14.25 12.3915 14.25 11.9832 14.2 11.8915C14.1417 11.8082 14.0084 11.7582 13.8 11.6665C13.5917 11.5499 12.575 11.0499 12.3917 10.9832C12.2 10.9165 12.0834 10.8832 11.925 11.0832C11.7917 11.2915 11.3917 11.7582 11.275 11.8915C11.15 12.0332 11.0334 12.0499 10.8334 11.9499C10.6167 11.8415 9.95004 11.6249 9.16671 10.9249C8.55004 10.3749 8.14171 9.69988 8.01671 9.49155C7.91671 9.29155 8.00837 9.16655 8.10837 9.07488C8.20004 8.98322 8.33337 8.83322 8.41671 8.70822C8.52504 8.59155 8.55837 8.49988 8.62504 8.36655C8.69171 8.22488 8.65837 8.10821 8.60837 8.00821C8.55837 7.91655 8.14171 6.88321 7.96671 6.47488C7.80004 6.07488 7.63337 6.12488 7.50004 6.11655C7.38337 6.11655 7.25004 6.10821 7.10837 6.10821Z" fill="white"/>
</svg>
