<svg width="109" height="36" viewBox="0 0 109 36" fill="none" xmlns="http://www.w3.org/2000/svg">
<path d="M15.4981 11.6613L4.40063 16.8919L15.4981 20.3844L26.5994 15.3481L15.4981 11.6613Z" stroke="#5A6D60" stroke-width="0.6" stroke-linecap="round" stroke-linejoin="round"/>
<path d="M4.40063 20.8687L15.4981 24.3619L26.5994 19.325" stroke="#5A6D60" stroke-width="0.6" stroke-linecap="round" stroke-linejoin="round"/>
<path d="M4.4006 24.8463L15.4981 28.3388L26.5994 23.3025C28.1056 22.6869 27.9931 19.7644 26.5994 19.3256M15.6631 14.4913L18.4619 15.4206M4.40123 16.8919C2.89435 17.5075 3.00623 20.43 4.40123 20.8694" stroke="#5A6D60" stroke-width="0.6" stroke-linecap="round" stroke-linejoin="round"/>
<path d="M33.594 6.416C34.7207 5.948 35.804 5.714 36.844 5.714C37.7107 5.714 38.6033 6.03467 39.522 6.676C40.0247 7.02267 40.588 7.69867 41.212 8.704C41.628 9.39733 42.1567 10.654 42.798 12.474L45.97 21.47C46.698 23.4807 47.4347 25.0753 48.18 26.254C48.9427 27.45 49.636 28.3427 50.26 28.932C50.884 29.5387 51.534 29.9633 52.21 30.206C52.886 30.4487 53.4407 30.57 53.874 30.57C54.3247 30.57 54.7233 30.5353 55.07 30.466L55.096 30.726C54.264 31.0033 53.4493 31.142 52.652 31.142C51.8547 31.142 51.0573 30.934 50.26 30.518C49.4627 30.1193 48.7173 29.556 48.024 28.828C46.5333 27.32 45.268 25.0233 44.228 21.938L43.214 18.974H36.09L34.296 23.602C34.2093 23.81 34.166 24.018 34.166 24.226C34.166 24.434 34.2527 24.6593 34.426 24.902C34.6167 25.1273 34.9027 25.24 35.284 25.24H35.492V25.5H30.266V25.24H30.5C30.916 25.24 31.3233 25.1187 31.722 24.876C32.1207 24.616 32.45 24.2347 32.71 23.732L39.158 8.288C38.222 6.95333 37.0607 6.286 35.674 6.286C35.05 6.286 34.3827 6.416 33.672 6.676L33.594 6.416ZM36.376 18.194H42.954L40.9 12.136C40.5013 10.9747 40.1373 10.0647 39.808 9.406L36.376 18.194ZM61.1373 14.115H60.8733C60.6423 14.115 60.4388 14.192 60.2628 14.346C60.0978 14.489 60.0098 14.6705 59.9988 14.8905V21.4245C59.9988 22.7115 59.5918 23.751 58.7778 24.543C57.9638 25.335 56.8803 25.731 55.5273 25.731C54.1743 25.731 53.0743 25.3405 52.2273 24.5595C51.3913 23.7675 50.9733 22.728 50.9733 21.441V14.94C50.9733 14.61 50.8303 14.368 50.5443 14.214C50.4123 14.148 50.2638 14.115 50.0988 14.115H49.8348V13.95H53.1843V14.115H52.9203C52.6783 14.115 52.4748 14.192 52.3098 14.346C52.1448 14.489 52.0568 14.676 52.0458 14.907V21.21C52.0458 22.409 52.3648 23.377 53.0028 24.114C53.6518 24.851 54.5153 25.2195 55.5933 25.2195C56.6713 25.2195 57.5458 24.873 58.2168 24.18C58.8878 23.476 59.2233 22.5575 59.2233 21.4245V14.907C59.2123 14.676 59.1243 14.489 58.9593 14.346C58.7943 14.192 58.5908 14.115 58.3488 14.115H58.0848V13.95H61.1373V14.115ZM66.3538 14.4615H65.2978V24.2955C65.2978 24.5815 65.3968 24.829 65.5948 25.038C65.8038 25.236 66.0568 25.335 66.3538 25.335H66.5518L66.5683 25.5H62.9548V25.335H63.1693C63.4553 25.335 63.6973 25.236 63.8953 25.038C64.1043 24.84 64.2143 24.598 64.2253 24.312V15.1545C64.2143 14.8685 64.1043 14.6265 63.8953 14.4285C63.6973 14.2195 63.4553 14.115 63.1693 14.115H62.9548V13.95H67.4098C68.4108 13.95 69.1973 14.2305 69.7693 14.7915C70.3413 15.3415 70.6273 16.062 70.6273 16.953C70.6273 17.833 70.3523 18.5975 69.8023 19.2465C69.2633 19.8845 68.6033 20.2035 67.8223 20.2035C67.9873 20.2805 68.1798 20.4345 68.3998 20.6655C68.6308 20.8855 68.8343 21.1165 69.0103 21.3585C69.9563 22.7115 70.5723 23.5475 70.8583 23.8665C71.1443 24.1745 71.3478 24.389 71.4688 24.51C71.5898 24.62 71.7218 24.73 71.8648 24.84C72.0078 24.95 72.1508 25.038 72.2938 25.104C72.6128 25.258 72.9538 25.335 73.3168 25.335V25.5H72.4093C71.9363 25.5 71.4963 25.4175 71.0893 25.2525C70.6823 25.0765 70.3743 24.9005 70.1653 24.7245C69.9673 24.5375 69.7913 24.3615 69.6373 24.1965C69.4943 24.0205 69.0873 23.4485 68.4163 22.4805C67.7453 21.5125 67.3548 20.9625 67.2448 20.8305C67.1348 20.6875 67.0193 20.55 66.8983 20.418C66.5463 20.044 66.1943 19.857 65.8423 19.857V19.692C65.9303 19.703 66.0458 19.7085 66.1888 19.7085C66.3318 19.7085 66.5078 19.703 66.7168 19.692C68.0808 19.659 68.9388 19.087 69.2908 17.976C69.3568 17.756 69.3898 17.5525 69.3898 17.3655C69.3898 17.1675 69.3898 17.041 69.3898 16.986C69.3678 16.249 69.1753 15.655 68.8123 15.204C68.4493 14.753 67.9598 14.511 67.3438 14.478C67.0798 14.467 66.7498 14.4615 66.3538 14.4615ZM74.8156 15.3855C75.9926 14.2745 77.5161 13.719 79.3861 13.719C81.2671 13.719 82.7961 14.2745 83.9731 15.3855C85.1501 16.4855 85.7386 17.932 85.7386 19.725C85.7386 21.518 85.1501 22.97 83.9731 24.081C82.7961 25.181 81.2671 25.731 79.3861 25.731C77.5161 25.731 75.9926 25.181 74.8156 24.081C73.6386 22.97 73.0501 21.518 73.0501 19.725C73.0501 17.932 73.6386 16.4855 74.8156 15.3855ZM75.7066 23.718C76.6416 24.73 77.8681 25.236 79.3861 25.236C80.9041 25.236 82.1251 24.73 83.0491 23.718C83.9841 22.706 84.4516 21.375 84.4516 19.725C84.4516 18.075 83.9841 16.744 83.0491 15.732C82.1251 14.72 80.9041 14.214 79.3861 14.214C77.8681 14.214 76.6416 14.72 75.7066 15.732C74.7826 16.744 74.3206 18.075 74.3206 19.725C74.3206 21.375 74.7826 22.706 75.7066 23.718ZM90.4432 14.4615H89.3872V24.2955C89.3872 24.5815 89.4862 24.829 89.6842 25.038C89.8932 25.236 90.1462 25.335 90.4432 25.335H90.6412L90.6577 25.5H87.0442V25.335H87.2587C87.5447 25.335 87.7867 25.236 87.9847 25.038C88.1937 24.84 88.3037 24.598 88.3147 24.312V15.1545C88.3037 14.8685 88.1937 14.6265 87.9847 14.4285C87.7867 14.2195 87.5447 14.115 87.2587 14.115H87.0442V13.95H91.4992C92.5002 13.95 93.2867 14.2305 93.8587 14.7915C94.4307 15.3415 94.7167 16.062 94.7167 16.953C94.7167 17.833 94.4417 18.5975 93.8917 19.2465C93.3527 19.8845 92.6927 20.2035 91.9117 20.2035C92.0767 20.2805 92.2692 20.4345 92.4892 20.6655C92.7202 20.8855 92.9237 21.1165 93.0997 21.3585C94.0457 22.7115 94.6617 23.5475 94.9477 23.8665C95.2337 24.1745 95.4372 24.389 95.5582 24.51C95.6792 24.62 95.8112 24.73 95.9542 24.84C96.0972 24.95 96.2402 25.038 96.3832 25.104C96.7022 25.258 97.0432 25.335 97.4062 25.335V25.5H96.4987C96.0257 25.5 95.5857 25.4175 95.1787 25.2525C94.7717 25.0765 94.4637 24.9005 94.2547 24.7245C94.0567 24.5375 93.8807 24.3615 93.7267 24.1965C93.5837 24.0205 93.1767 23.4485 92.5057 22.4805C91.8347 21.5125 91.4442 20.9625 91.3342 20.8305C91.2242 20.6875 91.1087 20.55 90.9877 20.418C90.6357 20.044 90.2837 19.857 89.9317 19.857V19.692C90.0197 19.703 90.1352 19.7085 90.2782 19.7085C90.4212 19.7085 90.5972 19.703 90.8062 19.692C92.1702 19.659 93.0282 19.087 93.3802 17.976C93.4462 17.756 93.4792 17.5525 93.4792 17.3655C93.4792 17.1675 93.4792 17.041 93.4792 16.986C93.4572 16.249 93.2647 15.655 92.9017 15.204C92.5387 14.753 92.0492 14.511 91.4332 14.478C91.1692 14.467 90.8392 14.4615 90.4432 14.4615ZM108.535 25.335H108.667V25.5H104.955V25.335H105.103C105.334 25.335 105.505 25.2635 105.615 25.1205C105.736 24.9665 105.796 24.8235 105.796 24.6915C105.796 24.5595 105.774 24.4275 105.73 24.2955L104.674 21.4905H100.219L99.1137 24.312C99.0697 24.444 99.0477 24.576 99.0477 24.708C99.0477 24.829 99.1027 24.9665 99.2127 25.1205C99.3337 25.2635 99.5097 25.335 99.7407 25.335H99.8892V25.5H96.5727V25.335H96.7212C96.9962 25.335 97.2657 25.247 97.5297 25.071C97.7937 24.895 98.0082 24.6365 98.1732 24.2955L101.902 15.4185C102.309 14.5275 102.513 13.961 102.513 13.719H102.661L107.083 24.2955C107.237 24.6365 107.446 24.895 107.71 25.071C107.974 25.247 108.249 25.335 108.535 25.335ZM100.417 20.9955H104.476L102.496 15.699L100.417 20.9955Z" fill="#3E2C1C"/>
</svg>
