<svg width="115" height="145" viewBox="0 0 115 145" fill="none" xmlns="http://www.w3.org/2000/svg">
<g filter="url(#filter0_d_327_57)">
<path d="M4 24.958C4 16.2227 4 11.855 5.94383 8.51691C7.65355 5.58195 10.3816 3.19574 13.737 1.70026C17.5533 -4.77309e-07 22.5467 0 32.5333 0H82.4667C92.4533 0 97.4467 -4.77309e-07 101.263 1.70026C104.618 3.19574 107.346 5.58195 109.056 8.51691C111 11.855 111 16.2227 111 24.958V128.729C111 132.519 111 134.414 110.099 135.452C109.71 135.903 109.214 136.275 108.644 136.541C108.074 136.808 107.445 136.963 106.8 136.996C105.311 137.074 103.51 136.021 99.9077 133.923L57.5 109.191L15.0923 133.915C11.49 136.021 9.68883 137.074 8.19083 136.996C7.54737 136.962 6.92 136.806 6.35197 136.54C5.78394 136.273 5.28877 135.902 4.90058 135.452C4 134.414 4 132.519 4 128.729V24.958Z" fill="#6B8E77"/>
<path d="M32.5332 0.5H82.4668C87.467 0.5 91.1909 0.500013 94.1426 0.710938C96.9058 0.908427 98.9568 1.28948 100.712 2.00879L101.06 2.15723C104.123 3.52271 106.639 5.64559 108.303 8.24316L108.624 8.76855C109.545 10.3499 110.019 12.1956 110.259 14.7598C110.499 17.3322 110.5 20.5809 110.5 24.958V128.729C110.5 130.635 110.499 132.025 110.39 133.07C110.294 133.986 110.121 134.565 109.846 134.964L109.722 135.124L109.721 135.125C109.38 135.52 108.941 135.85 108.432 136.089C107.986 136.297 107.497 136.431 106.992 136.48L106.774 136.497C106.157 136.529 105.426 136.33 104.36 135.824C103.563 135.446 102.616 134.915 101.43 134.229L100.159 133.491L57.752 108.76L57.5 108.612L57.248 108.759L14.8408 133.483H14.8398C13.0308 134.541 11.7016 135.318 10.6377 135.823C9.70537 136.266 9.02786 136.475 8.45605 136.498L8.2168 136.497C7.63615 136.466 7.07236 136.325 6.56445 136.087C6.1199 135.878 5.72943 135.6 5.41113 135.27L5.2793 135.125L5.27832 135.124L5.1543 134.964C4.87933 134.565 4.70607 133.986 4.61035 133.07C4.50117 132.025 4.5 130.635 4.5 128.729V24.958C4.5 20.5809 4.50091 17.3322 4.74121 14.7598C4.96578 12.356 5.39633 10.5835 6.20801 9.06836L6.37598 8.76855C7.9252 6.10914 10.346 3.90559 13.335 2.44043L13.9404 2.15723C15.7726 1.34095 17.9098 0.921602 20.8574 0.710938C23.8091 0.500013 27.533 0.5 32.5332 0.5Z" stroke="white"/>
</g>
<path d="M36.298 56.124C34.2633 57.1507 32.2007 57.3187 30.11 56.628C27.8887 55.9187 25.9753 54.4067 24.37 52.092C23.5113 50.86 22.774 49.432 22.158 47.808L21.262 45.428H14.654L13.17 48.956C13.0767 49.1987 13.03 49.3947 13.03 49.544C13.03 49.6933 13.058 49.8613 13.114 50.048C13.1887 50.216 13.3287 50.3747 13.534 50.524C13.758 50.6547 14.0007 50.72 14.262 50.72H14.486V51H8.494V50.72H8.746C9.17533 50.72 9.59533 50.5987 10.006 50.356C10.4353 50.0947 10.79 49.712 11.07 49.208L17.314 34.956C16.586 33.3133 15.8113 32.184 14.99 31.568C14.2993 31.0453 13.6367 30.784 13.002 30.784C12.386 30.784 11.8073 30.8773 11.266 31.064L11.21 30.784C12.554 30.0933 13.842 29.748 15.074 29.748C16.6047 29.748 17.9767 30.3453 19.19 31.54C20.3847 32.716 21.4393 34.4147 22.354 36.636L26.414 46.66C27.9447 50.4493 29.5127 53.0533 31.118 54.472C31.7713 55.0507 32.4433 55.452 33.134 55.676C33.8247 55.9 34.4033 56.012 34.87 56.012C35.3553 56.012 35.822 55.956 36.27 55.844L36.298 56.124ZM15.13 44.224H20.842L18.882 39.044C18.7887 38.7827 18.658 38.428 18.49 37.98C18.322 37.5133 18.21 37.1867 18.154 37L15.13 44.224ZM44.7922 37.2H44.4522C44.1722 37.2 43.9255 37.2933 43.7122 37.48C43.5122 37.6533 43.4122 37.8733 43.4122 38.14V45.94C43.4122 47.58 42.8989 48.88 41.8722 49.84C40.8455 50.8 39.4389 51.28 37.6522 51.28C35.5455 51.28 33.9322 50.8133 32.8122 49.88C31.6922 48.9333 31.1322 47.6267 31.1322 45.96V38.2C31.1322 37.9067 31.0255 37.6667 30.8122 37.48C30.6122 37.2933 30.3655 37.2 30.0722 37.2H29.7522V37H35.5122V37.2H35.1922C34.8989 37.2 34.6522 37.2933 34.4522 37.48C34.2522 37.6533 34.1455 37.88 34.1322 38.16V45.8C34.1322 47.2133 34.4789 48.3333 35.1722 49.16C35.8655 49.9867 36.8189 50.4 38.0322 50.4C39.2455 50.4 40.2055 50.0133 40.9122 49.24C41.6189 48.4533 41.9789 47.3933 41.9922 46.06V38.16C41.9922 37.88 41.8855 37.6533 41.6722 37.48C41.4722 37.2933 41.2255 37.2 40.9322 37.2H40.6122V37H44.7922V37.2ZM51.6022 37.88H50.7422C50.7155 37.88 50.6955 37.88 50.6822 37.88V49.54C50.6955 50.0333 50.9089 50.4 51.3222 50.64C51.5222 50.7467 51.7355 50.8 51.9622 50.8H52.2222V51H46.1422V50.8H46.4022C46.8822 50.8 47.2489 50.5933 47.5022 50.18C47.6089 49.9933 47.6689 49.7867 47.6822 49.56V38.46C47.6689 38.1133 47.5355 37.82 47.2822 37.58C47.0422 37.3267 46.7489 37.2 46.4022 37.2H46.1422V37H53.0022C54.2955 37 55.3889 37.28 56.2822 37.84C56.7355 38.12 57.0955 38.5133 57.3622 39.02C57.6289 39.5133 57.7622 40.08 57.7622 40.72C57.7622 41.3467 57.6489 41.9267 57.4222 42.46C57.2089 42.9933 56.8422 43.46 56.3222 43.86C55.8155 44.26 55.2022 44.5 54.4822 44.58C55.2555 44.8333 55.9355 45.42 56.5222 46.34C57.9622 48.6467 59.0289 50.02 59.7222 50.46C60.0689 50.6733 60.5022 50.7867 61.0222 50.8V51H59.0622C57.9289 51 56.9822 50.8467 56.2222 50.54C55.4622 50.22 54.8422 49.68 54.3622 48.92C54.1222 48.5333 53.8155 47.9533 53.4422 47.18C53.0689 46.3933 52.8222 45.8333 52.7022 45.5C52.3422 44.7 51.8889 44.2533 51.3422 44.16V43.96H51.9622C52.5622 43.96 53.0889 43.78 53.5422 43.42C54.0089 43.06 54.3222 42.4733 54.4822 41.66C54.5355 41.38 54.5622 41.16 54.5622 41C54.5622 39.9067 54.3422 39.12 53.9022 38.64C53.4622 38.1467 52.8955 37.8933 52.2022 37.88C52.0689 37.88 51.8689 37.88 51.6022 37.88ZM68.3586 36.72C70.8253 36.72 72.7853 37.3733 74.2386 38.68C75.6919 39.9867 76.4186 41.76 76.4186 44C76.4186 46.24 75.6919 48.0133 74.2386 49.32C72.7853 50.6267 70.8253 51.28 68.3586 51.28C65.8919 51.28 63.9319 50.6267 62.4786 49.32C61.0253 48.0133 60.2986 46.24 60.2986 44C60.2986 42.52 60.6253 41.2333 61.2786 40.14C61.9453 39.0333 62.8853 38.1867 64.0986 37.6C65.3119 37.0133 66.7319 36.72 68.3586 36.72ZM64.8586 48.72C65.7253 49.8667 66.8919 50.44 68.3586 50.44C69.8253 50.44 70.9853 49.8667 71.8386 48.72C72.7053 47.56 73.1386 45.9867 73.1386 44C73.1386 42.6933 72.9453 41.5533 72.5586 40.58C72.1719 39.6067 71.6186 38.86 70.8986 38.34C70.1786 37.82 69.3319 37.56 68.3586 37.56C66.8919 37.56 65.7253 38.14 64.8586 39.3C64.0053 40.4467 63.5786 42.0133 63.5786 44C63.5786 45.9867 64.0053 47.56 64.8586 48.72ZM83.1061 37.88H82.2461C82.2194 37.88 82.1994 37.88 82.1861 37.88V49.54C82.1994 50.0333 82.4128 50.4 82.8261 50.64C83.0261 50.7467 83.2394 50.8 83.4661 50.8H83.7261V51H77.6461V50.8H77.9061C78.3861 50.8 78.7528 50.5933 79.0061 50.18C79.1128 49.9933 79.1728 49.7867 79.1861 49.56V38.46C79.1728 38.1133 79.0394 37.82 78.7861 37.58C78.5461 37.3267 78.2528 37.2 77.9061 37.2H77.6461V37H84.5061C85.7994 37 86.8928 37.28 87.7861 37.84C88.2394 38.12 88.5994 38.5133 88.8661 39.02C89.1328 39.5133 89.2661 40.08 89.2661 40.72C89.2661 41.3467 89.1528 41.9267 88.9261 42.46C88.7128 42.9933 88.3461 43.46 87.8261 43.86C87.3194 44.26 86.7061 44.5 85.9861 44.58C86.7594 44.8333 87.4394 45.42 88.0261 46.34C89.4661 48.6467 90.5328 50.02 91.2261 50.46C91.5728 50.6733 92.0061 50.7867 92.5261 50.8V51H90.5661C89.4328 51 88.4861 50.8467 87.7261 50.54C86.9661 50.22 86.3461 49.68 85.8661 48.92C85.6261 48.5333 85.3194 47.9533 84.9461 47.18C84.5728 46.3933 84.3261 45.8333 84.2061 45.5C83.8461 44.7 83.3928 44.2533 82.8461 44.16V43.96H83.4661C84.0661 43.96 84.5928 43.78 85.0461 43.42C85.5128 43.06 85.8261 42.4733 85.9861 41.66C86.0394 41.38 86.0661 41.16 86.0661 41C86.0661 39.9067 85.8461 39.12 85.4061 38.64C84.9661 38.1467 84.3994 37.8933 83.7061 37.88C83.5728 37.88 83.3728 37.88 83.1061 37.88ZM106.194 50.8H106.374V51H99.9936V50.8H100.174C100.467 50.8 100.68 50.7133 100.814 50.54C100.96 50.3533 101.034 50.18 101.034 50.02C101.034 49.86 101 49.7 100.934 49.54L99.9536 47.08H95.2736L94.2336 49.54C94.1669 49.7133 94.1336 49.88 94.1336 50.04C94.1336 50.1867 94.2003 50.3533 94.3336 50.54C94.4803 50.7133 94.7069 50.8 95.0136 50.8H95.1736V51H90.8936V50.8H91.0736C91.3803 50.8 91.6869 50.7067 91.9936 50.52C92.3003 50.3333 92.5536 50.0533 92.7536 49.68L97.3736 39.22C98.0003 37.9 98.3336 37.0267 98.3736 36.6H98.5536L104.494 49.64C104.694 50.0267 104.947 50.32 105.254 50.52C105.56 50.7067 105.874 50.8 106.194 50.8ZM95.6136 46.24H99.6136L97.6736 41.32L95.6136 46.24Z" fill="#FDF9F3"/>
<path d="M57.1775 63.8189L35.9775 73.8111L57.1775 80.483L78.3846 70.862L57.1775 63.8189Z" stroke="#FDF9F3" stroke-width="2" stroke-linecap="round" stroke-linejoin="round"/>
<path d="M35.9775 81.4083L57.1775 88.0813L78.3846 78.4592" stroke="#FDF9F3" stroke-width="2" stroke-linecap="round" stroke-linejoin="round"/>
<path d="M35.9775 89.0067L57.1774 95.6785L78.3845 86.0576C81.262 84.8815 81.0471 79.2986 78.3845 78.4604M57.4926 69.2251L62.8392 71.0005M35.9787 73.8111C33.1 74.9872 33.3137 80.5701 35.9787 81.4095" stroke="#FDF9F3" stroke-width="2" stroke-linecap="round" stroke-linejoin="round"/>
<defs>
<filter id="filter0_d_327_57" x="0" y="0" width="115" height="145" filterUnits="userSpaceOnUse" color-interpolation-filters="sRGB">
<feFlood flood-opacity="0" result="BackgroundImageFix"/>
<feColorMatrix in="SourceAlpha" type="matrix" values="0 0 0 0 0 0 0 0 0 0 0 0 0 0 0 0 0 0 127 0" result="hardAlpha"/>
<feOffset dy="4"/>
<feGaussianBlur stdDeviation="2"/>
<feComposite in2="hardAlpha" operator="out"/>
<feColorMatrix type="matrix" values="0 0 0 0 0 0 0 0 0 0 0 0 0 0 0 0 0 0 0.25 0"/>
<feBlend mode="normal" in2="BackgroundImageFix" result="effect1_dropShadow_327_57"/>
<feBlend mode="normal" in="SourceGraphic" in2="effect1_dropShadow_327_57" result="shape"/>
</filter>
</defs>
</svg>
